<svg width="38" height="38" viewBox="0 0 38 38" fill="none" xmlns="http://www.w3.org/2000/svg">
<path d="M18.9335 18.9324C16.375 13.3891 16.375 6.99305 18.9335 2.30259C21.4919 6.99305 21.4919 13.3891 18.9335 18.9324Z" stroke="#2A2826" stroke-width="0.767529"/>
<path d="M18.9327 18.9324C21.0433 13.2036 25.566 8.68092 30.6918 7.17335C29.1842 12.2991 24.6615 16.8218 18.9327 18.9324Z" stroke="#2A2826" stroke-width="0.767529"/>
<path d="M18.9327 18.9324C24.476 16.374 30.872 16.374 35.5625 18.9324C30.872 21.4908 24.476 21.4908 18.9327 18.9324Z" stroke="#2A2826" stroke-width="0.767529"/>
<path d="M18.932 18.9324C24.6608 21.043 29.1835 25.5657 30.691 30.6914C25.5653 29.1839 21.0426 24.6612 18.932 18.9324Z" stroke="#2A2826" stroke-width="0.767529"/>
<path d="M18.9327 18.9324C21.4912 24.4757 21.4912 30.8717 18.9327 35.5622C16.3743 30.8717 16.3743 24.4757 18.9327 18.9324Z" stroke="#2A2826" stroke-width="0.767529"/>
<path d="M18.9335 18.9324C16.8229 24.6612 12.3002 29.1839 7.17444 30.6914C8.68201 25.5657 13.2047 21.043 18.9335 18.9324Z" stroke="#2A2826" stroke-width="0.767529"/>
<path d="M18.9325 18.9324C13.3893 21.4908 6.99319 21.4908 2.30273 18.9324C6.99319 16.374 13.3893 16.374 18.9325 18.9324Z" stroke="#2A2826" stroke-width="0.767529"/>
<path d="M18.9323 18.9324C13.2035 16.8218 8.68079 12.2991 7.17322 7.17335C12.299 8.68092 16.8217 13.2036 18.9323 18.9324Z" stroke="#2A2826" stroke-width="0.767529"/>
<path opacity="0.4" d="M18.9327 37.6942C29.2946 37.6942 37.6946 29.2943 37.6946 18.9324C37.6946 8.57052 29.2946 0.170563 18.9327 0.170563C8.57086 0.170563 0.170898 8.57052 0.170898 18.9324C0.170898 29.2943 8.57086 37.6942 18.9327 37.6942Z" stroke="#B8956A" stroke-width="0.341124"/>
<path d="M18.9327 18.4207L18.951 18.4054L18.9706 18.3913L18.9911 18.3772L19.0124 18.3644L19.035 18.3525L19.0585 18.341L19.0828 18.3307L19.1079 18.3214L19.1339 18.3133L19.1608 18.306L19.1881 18.3L19.2162 18.2953L19.2452 18.2915L19.2746 18.2894L19.3045 18.2881L19.3352 18.2885L19.3659 18.2902L19.397 18.2932L19.4286 18.2975L19.4606 18.3034L19.4925 18.3107L19.5245 18.3192L19.5569 18.3295L19.5889 18.3414L19.6209 18.3546L19.6529 18.3695L19.6848 18.3862L19.716 18.4041L19.7471 18.4233L19.7778 18.4446L19.8081 18.4668L19.8375 18.4911L19.8665 18.5166L19.8951 18.5435L19.9224 18.5721L19.9492 18.6019L19.9748 18.6335L20 18.6663L20.0234 18.7004L20.0464 18.7362L20.0678 18.7729L20.0882 18.8109L20.107 18.8501L20.1245 18.8906L20.1407 18.9324L20.1556 18.975L20.1688 19.019L20.1803 19.0637L20.1906 19.1094L20.1987 19.1558L20.2051 19.2027L20.2102 19.2509L20.2132 19.2995L20.214 19.3486L20.2136 19.3985L20.2106 19.4488L20.2059 19.4995L20.1995 19.5503L20.1906 19.6014L20.1799 19.6526L20.1671 19.7038L20.1522 19.7549L20.1356 19.8061L20.1164 19.8573L20.0955 19.908L20.072 19.9583L20.0469 20.0082L20.0191 20.0577L19.9897 20.1063L19.9582 20.1545L19.9241 20.2014L19.8882 20.2479L19.8507 20.2931L19.8106 20.3374L19.7688 20.3809L19.7249 20.4227L19.6793 20.4636L19.632 20.5028L19.5825 20.5404L19.5313 20.5766L19.478 20.6111L19.4235 20.6444L19.3672 20.6751L19.3092 20.7045L19.2499 20.7318L19.1889 20.757L19.1271 20.7804L19.0636 20.8013L18.9988 20.8205L18.9327 20.8371L18.8657 20.8512L18.7975 20.8632L18.7288 20.8725L18.6589 20.8798L18.5886 20.8845L18.5173 20.8862L18.4457 20.8858L18.3736 20.8823L18.3012 20.8764L18.2282 20.8674L18.1553 20.8563L18.0824 20.8418L18.0095 20.8252L17.9366 20.8056L17.8641 20.783L17.792 20.7574L17.7204 20.7297L17.6496 20.6986L17.5788 20.6649L17.5093 20.6286L17.4407 20.5894L17.3729 20.5472L17.3064 20.5028L17.2411 20.4555L17.1772 20.4052L17.1149 20.3527L17.0539 20.2973L16.9942 20.2398L16.9367 20.1796L16.8812 20.1169L16.8275 20.0517L16.7755 19.9843L16.726 19.9148L16.6787 19.8432L16.6339 19.769L16.5913 19.6931L16.5512 19.6151L16.5141 19.5353L16.4791 19.4539L16.4471 19.3707L16.4182 19.2859L16.3921 19.1993L16.3687 19.1115L16.3486 19.0228L16.3316 18.9324L16.3175 18.8411L16.3069 18.7486L16.2996 18.6557L16.2958 18.5618L16.2949 18.4672L16.2975 18.3721L16.3039 18.277L16.3133 18.1815L16.3265 18.0856L16.3431 17.99L16.3631 17.8941L16.3866 17.799L16.4139 17.7039L16.4446 17.6097L16.4791 17.5159L16.5167 17.4229L16.558 17.3308L16.6028 17.2396L16.6514 17.15L16.703 17.0613L16.758 16.9743L16.8168 16.8891L16.8787 16.8055L16.9435 16.7232L17.0121 16.6434L17.0833 16.5654L17.158 16.4899L17.236 16.4166L17.3166 16.3458L17.4002 16.2776L17.4863 16.2124L17.5754 16.1492L17.6671 16.0895L17.7613 16.0328L17.8577 15.9791L17.9566 15.9288L18.0577 15.8815L18.1613 15.838L18.2662 15.7979L18.3736 15.7612L18.4824 15.7284L18.5928 15.699L18.705 15.6738L18.818 15.6525L18.9327 15.635L19.0482 15.6214L19.1651 15.612L19.2823 15.6069L19.4 15.6056L19.5185 15.6086L19.6375 15.6162L19.7565 15.6278L19.8759 15.6435L19.9948 15.6636L20.1134 15.6883L20.2319 15.7173L20.3496 15.7501L20.4664 15.7877L20.5824 15.8294L20.6976 15.8755L20.8114 15.9258L20.9236 15.9804L21.0348 16.0392L21.144 16.1023L21.2515 16.1693L21.3568 16.2405L21.46 16.3155L21.5606 16.3944L21.6591 16.4776L21.755 16.5641L21.8484 16.6545L21.9384 16.7483L22.0258 16.846L22.1098 16.9471L22.1904 17.0515L22.268 17.159L22.3418 17.2698L22.4117 17.3833L22.4778 17.5001L22.5405 17.6195L22.5989 17.741L22.653 17.8655L22.7029 17.9922L22.7486 18.1214L22.7899 18.2523L22.8266 18.3853L22.8586 18.5196L22.8859 18.6561L22.9089 18.7934L22.9268 18.9324L22.9396 19.0723L22.9477 19.213L22.9511 19.3545L22.949 19.497L22.9422 19.6394L22.9302 19.7822L22.9132 19.9246L22.891 20.0675L22.8637 20.2095L22.8313 20.3515L22.7938 20.4922L22.7511 20.6325L22.7034 20.7715L22.6505 20.9092L22.5925 21.0457L22.5298 21.18L22.462 21.313L22.3891 21.4439L22.3115 21.5723L22.2292 21.6985L22.1422 21.8226L22.0505 21.9432L21.9546 22.0614L21.8535 22.1765L21.7486 22.2882L21.6395 22.3969L21.5261 22.5018L21.4084 22.6029L21.2868 22.7001L21.1619 22.7935L21.0331 22.8826L20.9005 22.9675L20.7649 23.0476L20.6259 23.1235L20.4839 23.1947L20.3389 23.2608L20.1914 23.3222L20.0413 23.3785L19.8887 23.4297L19.7339 23.4753L19.577 23.5158L19.4179 23.5508L19.2576 23.5806L19.096 23.6045L18.9327 23.6228" stroke="#2A2826" stroke-width="0.938091" stroke-linecap="round"/>
<path d="M18.9328 20.5527C19.8277 20.5527 20.5532 19.8273 20.5532 18.9324C20.5532 18.0375 19.8277 17.3121 18.9328 17.3121C18.038 17.3121 17.3125 18.0375 17.3125 18.9324C17.3125 19.8273 18.038 20.5527 18.9328 20.5527Z" fill="#B8956A"/>
</svg>
