<svg width="46" height="46" viewBox="0 0 46 46" fill="none" xmlns="http://www.w3.org/2000/svg">
<g clip-path="url(#clip0_108_4162)">
<rect width="46" height="46" rx="23" fill="#F8F4EE"/>
<path d="M27.7955 22.9732C27.7955 25.7159 25.5722 27.9392 22.8294 27.9392C20.0867 27.9392 17.8652 25.7159 17.8652 22.9732C17.8652 20.2304 20.0886 18.0071 22.8294 18.0071C25.5702 18.0071 27.7955 20.2304 27.7955 22.9732Z" fill="#4A5D4F"/>
<path d="M23 0C10.2983 0 0 10.2983 0 23C0 35.7017 10.2983 46 23 46C35.7017 46 46 35.7017 46 23C46 10.2983 35.7017 0 23 0ZM37.6376 29.1142C37.5667 30.6992 37.3137 31.7822 36.9457 32.729C36.5642 33.7084 36.0544 34.5402 35.2264 35.3682C34.3984 36.1962 33.5666 36.7061 32.5891 37.0856C31.6423 37.4536 30.5574 37.7047 28.9723 37.7775C27.3834 37.8503 26.8755 37.8676 22.8294 37.8676C18.7833 37.8676 18.2773 37.8503 16.6884 37.7775C15.1033 37.7047 14.0204 37.4536 13.0717 37.0856C12.0922 36.7061 11.2623 36.1943 10.4324 35.3682C9.60442 34.5402 9.09458 33.7084 8.71317 32.729C8.34517 31.7822 8.09408 30.6992 8.02125 29.1142C7.94842 27.5252 7.93117 27.0173 7.93117 22.9712C7.93117 18.9252 7.94842 18.4192 8.02125 16.8302C8.09408 15.2452 8.34517 14.1622 8.71317 13.2135C9.09458 12.2341 9.60442 11.4042 10.4324 10.5762C11.2604 9.74817 12.0922 9.23833 13.0717 8.85692C14.0185 8.48892 15.1033 8.23783 16.6884 8.165C18.2773 8.09217 18.7852 8.07492 22.8294 8.07492C26.8736 8.07492 27.3834 8.09217 28.9723 8.165C30.5574 8.23592 31.6403 8.48892 32.5891 8.85692C33.5685 9.23642 34.3984 9.74817 35.2264 10.5762C36.0544 11.4042 36.5642 12.236 36.9457 13.2135C37.3137 14.1603 37.5647 15.2452 37.6376 16.8302C37.7104 18.4192 37.7277 18.9252 37.7277 22.9712C37.7277 27.0173 37.7104 27.5233 37.6376 29.1142ZM34.4444 14.1872C34.1742 13.4914 33.8522 12.995 33.3289 12.4737C32.8076 11.9523 32.3112 11.6284 31.6154 11.3582C31.0903 11.155 30.3025 10.9116 28.8497 10.8464C27.278 10.7736 26.8065 10.7602 22.8294 10.7602C18.8523 10.7602 18.3808 10.7755 16.8092 10.8464C15.3583 10.9116 14.5686 11.155 14.0434 11.3582C13.3477 11.6284 12.8512 11.9504 12.3299 12.4737C11.8086 12.995 11.4847 13.4914 11.2144 14.1872C11.0112 14.7123 10.7678 15.5001 10.7027 16.9529C10.6298 18.5227 10.6164 18.9942 10.6164 22.9732C10.6164 26.9522 10.6318 27.4217 10.7027 28.9934C10.7697 30.4443 11.0112 31.234 11.2144 31.7592C11.4847 32.4549 11.8067 32.9513 12.3299 33.4727C12.8512 33.994 13.3477 34.316 14.0434 34.5863C14.5686 34.7913 15.3563 35.0328 16.8092 35.0999C18.3789 35.1727 18.8504 35.1862 22.8294 35.1862C26.8084 35.1862 27.2799 35.1708 28.8497 35.0999C30.3025 35.0328 31.0903 34.7913 31.6154 34.5863C32.3112 34.316 32.8076 33.994 33.3289 33.4727C33.8503 32.9513 34.1742 32.4549 34.4444 31.7592C34.6476 31.234 34.891 30.4462 34.9562 28.9934C35.029 27.4217 35.0443 26.9502 35.0443 22.9732C35.0443 18.9961 35.029 18.5246 34.9562 16.9529C34.8891 15.5001 34.6476 14.7123 34.4444 14.1872ZM22.8313 30.6207C18.607 30.6207 15.1819 27.1956 15.1819 22.9712C15.1819 18.7469 18.607 15.3218 22.8313 15.3218C27.0557 15.3218 30.4807 18.7469 30.4807 22.9712C30.4807 27.1956 27.0557 30.6207 22.8313 30.6207ZM30.7836 16.8072C29.7965 16.8072 28.9953 16.008 28.9953 15.0209C28.9953 14.0338 29.7946 13.2327 30.7836 13.2327C31.7726 13.2327 32.5718 14.0338 32.5718 15.0209C32.5718 16.008 31.7707 16.8072 30.7836 16.8072Z" fill="#4A5D4F"/>
</g>
<defs>
<clipPath id="clip0_108_4162">
<rect width="46" height="46" rx="23" fill="white"/>
</clipPath>
</defs>
</svg>
