<svg width="8" height="9" viewBox="0 0 8 9" fill="none" xmlns="http://www.w3.org/2000/svg">
<path d="M3.11751 3.2955L3.13591 3.2801L3.15559 3.26598L3.17613 3.25186L3.19752 3.23902L3.2202 3.22704L3.24373 3.21549L3.26812 3.20522L3.29336 3.19581L3.31947 3.18768L3.34642 3.18041L3.3738 3.17442L3.40204 3.16971L3.43114 3.16586L3.46066 3.16372L3.49061 3.16243L3.52142 3.16286L3.55223 3.16457L3.58346 3.16757L3.61512 3.17185L3.64721 3.17784L3.6793 3.18511L3.71139 3.19367L3.74391 3.20394L3.776 3.21592L3.80809 3.22918L3.84018 3.24416L3.87227 3.26085L3.90351 3.27882L3.93474 3.29807L3.96555 3.31946L3.99593 3.34171L4.02545 3.3661L4.05455 3.39177L4.08321 3.41873L4.1106 3.4474L4.13755 3.47735L4.16323 3.50901L4.18847 3.54196L4.212 3.57619L4.23511 3.61213L4.2565 3.64892L4.27704 3.687L4.29587 3.72637L4.31341 3.76702L4.32967 3.80895L4.34464 3.85173L4.35791 3.89581L4.36946 3.94073L4.37973 3.98651L4.38786 4.03315L4.39428 4.08022L4.39941 4.12857L4.4024 4.17734L4.40326 4.22655L4.40283 4.27661L4.39984 4.3271L4.39513 4.37802L4.38871 4.42893L4.37973 4.48028L4.36903 4.53162L4.3562 4.58296L4.34122 4.63431L4.32453 4.68565L4.30528 4.737L4.28431 4.78791L4.26078 4.8384L4.23554 4.88846L4.20772 4.9381L4.1782 4.98687L4.14654 5.03523L4.11231 5.08229L4.07637 5.12893L4.03872 5.17428L3.99849 5.21878L3.95656 5.26242L3.91249 5.30435L3.86671 5.34543L3.81922 5.38479L3.76958 5.42245L3.71824 5.45882L3.66476 5.49347L3.60999 5.52685L3.55351 5.55766L3.49532 5.58718L3.43585 5.61456L3.37466 5.63981L3.31262 5.66334L3.24887 5.6843L3.18383 5.70356L3.11751 5.72024L3.05033 5.73437L2.98187 5.74635L2.91299 5.75576L2.84282 5.76303L2.77222 5.76774L2.70076 5.76945L2.62888 5.76902L2.55657 5.7656L2.48383 5.75961L2.41067 5.75062L2.3375 5.7395L2.26434 5.72495L2.19117 5.70826L2.11801 5.68858L2.04527 5.66591L1.97296 5.64023L1.90108 5.61242L1.83005 5.58119L1.75902 5.54739L1.68928 5.51102L1.62039 5.47165L1.55236 5.42929L1.48561 5.38479L1.42015 5.3373L1.35597 5.28681L1.2935 5.23418L1.23231 5.17856L1.17241 5.1208L1.11465 5.06047L1.05903 4.99757L1.00511 4.93211L0.952914 4.8645L0.903281 4.79476L0.855787 4.72288L0.810861 4.64843L0.768073 4.57227L0.727854 4.49397L0.690629 4.41396L0.655543 4.33223L0.623454 4.2488L0.594358 4.16365L0.568258 4.07679L0.544725 3.98865L0.524615 3.89966L0.507501 3.80895L0.493381 3.71738L0.482683 3.62454L0.47541 3.53126L0.47156 3.43713L0.470703 3.34214L0.473271 3.24673L0.479688 3.15131L0.489101 3.05547L0.502366 2.9592L0.519052 2.86335L0.539162 2.76708L0.562695 2.67167L0.590079 2.57625L0.620886 2.48169L0.655543 2.38756L0.693196 2.29429L0.734699 2.20187L0.779626 2.1103L0.828404 2.02045L0.880175 1.93145L0.935371 1.84417L0.994416 1.75859L1.05646 1.67473L1.12149 1.59215L1.19038 1.51214L1.26184 1.43384L1.33671 1.35811L1.41501 1.28451L1.49588 1.21348L1.57974 1.14503L1.66617 1.07956L1.7556 1.01624L1.84759 0.956335L1.94215 0.899429L2.03885 0.845517L2.13811 0.795029L2.23952 0.747535L2.34349 0.703892L2.44875 0.663671L2.55657 0.626875L2.66568 0.593929L2.7765 0.564406L2.88903 0.539162L3.00241 0.517768L3.11751 0.500225L3.23346 0.486534L3.3507 0.477121L3.46836 0.471986L3.58646 0.470703L3.7054 0.473698L3.82478 0.481399L3.94416 0.492952L4.06396 0.508782L4.18334 0.528893L4.30228 0.553708L4.42123 0.582804L4.53932 0.61575L4.65656 0.653403L4.77294 0.695334L4.88847 0.741545L5.00271 0.792034L5.11524 0.8468L5.22691 0.905847L5.33645 0.969171L5.44427 1.03635L5.54995 1.1078L5.6535 1.18311L5.75448 1.26226L5.85331 1.3457L5.94958 1.43255L6.04329 1.52326L6.13357 1.61739L6.22128 1.71538L6.30557 1.81678L6.38644 1.92161L6.46431 2.02943L6.53833 2.14068L6.60851 2.25449L6.67483 2.37173L6.73772 2.49154L6.79634 2.61348L6.85068 2.73842L6.90074 2.86549L6.94652 2.99514L6.98803 3.12649L7.02482 3.25999L7.05691 3.39477L7.0843 3.53169L7.1074 3.66946L7.12537 3.80895L7.13821 3.94929L7.14634 4.09049L7.14976 4.23254L7.14762 4.37545L7.14078 4.51836L7.1288 4.66169L7.11168 4.8046L7.08943 4.94794L7.06205 5.09042L7.02953 5.2329L6.99188 5.3741L6.94909 5.51487L6.90117 5.65435L6.84811 5.79256L6.78992 5.92947L6.72703 6.06425L6.65899 6.19775L6.58583 6.3291L6.50796 6.45789L6.42538 6.58454L6.33809 6.70905L6.2461 6.83014L6.14983 6.94866L6.04842 7.06419L5.94317 7.17629L5.83363 7.2854L5.71982 7.39065L5.60173 7.49206L5.47978 7.58961L5.35442 7.68332L5.2252 7.77274L5.09213 7.85789L4.95607 7.93833L4.81658 8.01449L4.6741 8.08594L4.52863 8.15226L4.38058 8.21387L4.22997 8.27035L4.0768 8.3217L3.92148 8.36748L3.76402 8.40813L3.60443 8.44321L3.44355 8.47316L3.28138 8.49713L3.11751 8.51552" stroke="#F8F4EE" stroke-width="0.941315" stroke-linecap="round"/>
</svg>
