<svg width="46" height="46" viewBox="0 0 46 46" fill="none" xmlns="http://www.w3.org/2000/svg">
<g clip-path="url(#clip0_108_4165)">
<rect width="46" height="46" rx="23" fill="#F8F4EE"/>
<path d="M19.6611 18.145L28.1941 22.9999L19.6611 27.8549V18.1469V18.145Z" fill="#4A5D4F"/>
<path d="M23 0C10.2983 0 0 10.2983 0 23C0 35.7017 10.2983 46 23 46C35.7017 46 46 35.7017 46 23C46 10.2983 35.7017 0 23 0ZM38.64 30.9082C38.2663 32.3207 37.1584 33.4343 35.7535 33.8138C33.2082 34.5 23 34.5 23 34.5C23 34.5 12.7918 34.5 10.2465 33.8138C8.84158 33.4362 7.73567 32.3227 7.36 30.9082C6.67575 28.3456 6.67575 23 6.67575 23C6.67575 23 6.67575 17.6544 7.36 15.0918C7.73375 13.6792 8.84158 12.5657 10.2465 12.1881C12.7918 11.5019 23 11.5019 23 11.5019C23 11.5019 33.2082 11.5019 35.7535 12.1881C37.1584 12.5657 38.2643 13.6792 38.64 15.0918C39.3223 17.6544 39.3223 23 39.3223 23C39.3223 23 39.3223 28.3456 38.64 30.9082Z" fill="#4A5D4F"/>
</g>
<defs>
<clipPath id="clip0_108_4165">
<rect width="46" height="46" rx="23" fill="white"/>
</clipPath>
</defs>
</svg>
